<?xml version="1.0" ?><svg enable-background="new 0 0 515.91 728.5" height="512" id="Layer_1" version="1.1" viewBox="0 0 512.00003 512" width="512" xml:space="preserve" xmlns="http://www.w3.org/2000/svg" xmlns:cc="http://creativecommons.org/ns#" xmlns:dc="http://purl.org/dc/elements/1.1/" xmlns:inkscape="http://www.inkscape.org/namespaces/inkscape" xmlns:rdf="http://www.w3.org/1999/02/22-rdf-syntax-ns#" xmlns:sodipodi="http://sodipodi.sourceforge.net/DTD/sodipodi-0.dtd" xmlns:svg="http://www.w3.org/2000/svg"><defs id="defs7"/><g id="g3811" transform="translate(233.90921,108.25001)"><path d="m -733.62329,72.267944 c 0,203.804876 -165.21649,369.021366 -369.02141,369.021366 -203.8048,0 -369.0213,-165.21649 -369.0213,-369.021366 0,-203.804874 165.2165,-369.021364 369.0213,-369.021364 203.80492,0 369.02141,165.21649 369.02141,369.021364 z" id="path4876" style="fill:#4086cd;fill-opacity:1;fill-rule:nonzero;stroke:none" transform="matrix(0.69372682,0,0,0.69372682,787.02497,97.615782)"/><path d="m 39.896221,1.3818624 c 12.3894,-14.5666894 33.3309,-25.4035404 50.6116,-26.1318804 2.2042,20.2362004 -5.9071,40.49924 -17.8978,55.10043 -12.0099,14.57436 -31.6673,25.92871 -50.96051,24.41454 -2.622,-19.79919 7.09941,-40.44556 18.24671,-53.3830896 z M 138.20612,277.42069 c -14.3406,21.02972 -29.1718,41.93291 -52.585799,42.36992 -23.0422,0.437 -30.429,-13.6927 -56.7258,-13.6927 -26.3235097,0 -34.5614097,13.25569 -56.31551,14.1297 -22.6053,0.85099 -39.7977,-22.71254 -54.2495,-43.65025 -29.528201,-42.80691 -52.075901,-121.04156 -21.761901,-173.83815 15.011401,-26.220038 41.913801,-42.806908 71.058701,-43.247738 22.2027,-0.41017 43.1749,15.0152 56.72961,15.0152 13.5853,0 39.0425,-18.51887 65.7993,-15.80104 11.200999,0.46383 42.638199,4.52718 62.832199,34.16273 -1.5985,1.05033 -37.5245,22.022538 -37.0914,65.707278 0.4371,52.18326 45.5861,69.52529 46.1113,69.76295 -0.414,1.22668 -7.222,24.76339 -23.8012,49.0821 z" id="Apple" style="fill:#ffffff;fill-opacity:1"/></g><path d="m 74.980696,437.01935 c 99.974224,99.97422 262.064454,99.97422 362.038674,0 99.97421,-99.97422 99.97422,-262.06445 0,-362.03867 L 74.980696,437.01935 z" id="path3752" style="fill:#000000;fill-opacity:0.30366492;fill-rule:nonzero;stroke:none"/></svg>